Coordinates
version=1
nRows=7
nColumns=63
inDegrees=yes

Units are S.I. units (second, meters, Newtons, ...)
If the header above contains a line with 'inDegrees', this indicates whether rotational values are in degrees (yes) or radians (no).

endheader
time	pelvis_tilt	pelvis_list	pelvis_rotation	pelvis_tx	pelvis_ty	pelvis_tz	hip_flexion_r	hip_adduction_r	hip_rotation_r	knee_angle_r	knee_angle_r_beta	ankle_angle_r	subtalar_angle_r	mtp_angle_r	hip_flexion_l	hip_adduction_l	hip_rotation_l	knee_angle_l	knee_angle_l_beta	ankle_angle_l	subtalar_angle_l	mtp_angle_l	L5_S1_Flex_Ext	L5_S1_Lat_Bending	L5_S1_axial_rotation	L4_L5_Flex_Ext	L4_L5_Lat_Bending	L4_L5_axial_rotation	L3_L4_Flex_Ext	L3_L4_Lat_Bending	L3_L4_axial_rotation	L2_L3_Flex_Ext	L2_L3_Lat_Bending	L2_L3_axial_rotation	L1_L2_Flex_Ext	L1_L2_Lat_Bending	L1_L2_axial_rotation	L1_T12_Flex_Ext	L1_T12_Lat_Bending	L1_T12_axial_rotation	Abs_r3	Abs_r2	Abs_r1	Abs_t1	Abs_t2	neck_flexion	neck_bending	neck_rotation	arm_flex_r	arm_add_r	arm_rot_r	elbow_flex_r	pro_sup_r	wrist_flex_r	wrist_dev_r	arm_flex_l	arm_add_l	arm_rot_l	elbow_flex_l	pro_sup_l	wrist_flex_l	wrist_dev_l
      0.00000000	    -34.61683118	      4.24491994	    -83.01295085	      1.68975958	      0.79130024	      0.05226511	     27.02001792	     -2.59330360	     -1.27874021	     38.17151665	      0.66621865	      6.04486640	     19.52261793	      0.00000000	     30.10713624	      1.18032272	     -9.52192282	     46.85814974	      0.81782899	     22.82541612	     -8.29206905	      0.00000000	     -0.38126627	      0.59219151	     -1.04358889	     -0.70804959	      0.78761471	     -1.10881319	     -0.62638236	      1.43985444	     -1.10881319	     -0.43574922	      1.43985444	     -0.91314028	     -0.35404386	      1.20759693	     -0.84791597	     -0.21785555	      0.91730465	     -0.78269167	     -2.72334686	      6.69898883	     -5.80412832	      0.00000000	      0.00000000	      0.00000000	      0.00000000	      0.00000001	     10.27086329	     -7.20023296	     45.46963957	     15.67479729	     64.54690986	      0.00000000	      4.22414811	     13.82535882	      0.43144202	     23.52231244	      4.82178436	     60.89796013	      0.00000000	      4.22414811
      0.01666670	    -36.32891390	      2.54739861	    -83.64708796	      1.68582761	      0.79084581	      0.05325988	     25.57226421	      0.08591341	      1.04173584	     38.08437995	      0.66469782	      6.17215427	     19.73763092	      0.00000000	     31.66693974	      0.38682154	    -11.71413575	     48.04805087	      0.83859669	     15.36137556	    -16.35104788	      0.00000000	     -0.32622428	      0.71115532	     -0.54105343	     -0.60583110	      0.94583658	     -0.57486927	     -0.53595386	      1.72910305	     -0.57486927	     -0.37284172	      1.72910305	     -0.47342175	     -0.30293186	      1.45018793	     -0.43960591	     -0.18640455	      1.10157959	     -0.40579007	     -2.33018737	      8.04473123	     -3.00917687	      0.00000000	      0.00000000	      0.00000000	      0.00000000	      0.00000001	      9.67530549	     -7.92247426	     47.29110765	     15.38329051	     65.01521742	      0.00000000	      4.24524182	     14.75687017	      0.26162845	     24.44210607	      4.23007070	     61.22533686	      0.00000000	      4.24524182
      0.03333330	    -35.26774533	      2.53086458	    -83.59639101	      1.68499496	      0.79111122	      0.05390952	     24.64051717	     -0.27453998	      3.57623265	     36.84726762	      0.64310614	      6.48648227	     19.74139374	      0.00000000	     31.67050743	      1.17349598	    -12.75905908	     47.92700948	      0.83648412	     11.80825923	    -18.86329526	      0.00000000	     -0.35543201	      0.60277294	     -0.55294125	     -0.66007278	      0.80168801	     -0.58750008	     -0.58393925	      1.46558212	     -0.58750008	     -0.40622324	      1.46558212	     -0.48382360	     -0.33005416	      1.22917457	     -0.44926477	     -0.20309385	      0.93369528	     -0.41470594	     -2.53881529	      6.81868802	     -3.07529337	      0.00000000	      0.00000000	      0.00000000	      0.00000000	      0.00000001	     10.71179815	     -7.92095589	     56.22040255	     14.96591727	     61.59906336	      0.00000000	      4.59215737	     15.45192791	     -0.81873428	     41.47989531	      3.49044923	     59.76757050	      0.00000000	      4.59215737
      0.05000000	    -35.57069467	      2.53711253	    -84.05854452	      1.68450262	      0.79257330	      0.05341724	     24.52839189	      0.26776030	      4.99229971	     36.70434801	      0.64061172	      5.61725624	     19.75602251	      0.00000000	     31.79944907	      0.57166351	    -12.88353380	     48.86639102	      0.85287942	     11.16217556	    -19.23518808	      0.00000000	     -0.37099406	      0.62660872	     -0.57828824	     -0.68897308	      0.83338960	     -0.61443126	     -0.60950615	      1.52353645	     -0.61443126	     -0.42400912	      1.52353645	     -0.50600221	     -0.34450509	      1.27778051	     -0.46985920	     -0.21198601	      0.97061691	     -0.43371618	     -2.64997350	      7.08832319	     -3.21626571	      0.00000000	      0.00000000	      0.00000000	      0.00000000	      0.00000001	     11.53176422	     -7.84383211	     60.58137418	     14.31844122	     61.82479164	      0.00000000	      4.65708531	     15.25028174	     -1.24357668	     44.10404287	      4.08527951	     58.46323613	      0.00000000	      4.65708531
      0.06666670	    -35.61709089	      2.83107590	    -84.20797290	      1.68414551	      0.79365180	      0.05303344	     24.83049908	      0.67762591	      6.27726304	     36.86462848	      0.64340914	      6.14126528	     19.74990687	      0.00000000	     32.20244497	      0.49141081	    -12.50776303	     48.96651302	      0.85462688	     11.42805746	    -19.42915758	      0.00000000	     -0.35328736	      0.62188152	     -0.62013574	     -0.65608996	      0.82710242	     -0.65889423	     -0.58041581	      1.51204272	     -0.65889423	     -0.40377213	      1.51204272	     -0.54261878	     -0.32806264	      1.26814079	     -0.50386029	     -0.20186840	      0.96329447	     -0.46510181	     -2.52349629	      7.03484810	     -3.44900897	      0.00000000	      0.00000000	      0.00000000	      0.00000000	      0.00000001	     11.94704578	     -7.93126055	     64.74705649	     14.39210065	     61.10106635	      0.00000000	      4.73221856	     15.09060344	     -1.61775203	     49.59174670	      4.13045755	     57.12724147	      0.00000000	      4.73221856
      0.08333330	    -35.81215891	      3.14789179	    -84.26978476	      1.68350484	      0.79395565	      0.05324074	     24.93114713	      1.10142338	      6.64271451	     36.35384870	      0.63449436	      6.34708231	     19.74317921	      0.00000000	     32.12837661	      0.14170493	    -12.34449572	     48.28413049	      0.84271705	     10.95281572	    -19.48395728	      0.00000000	     -0.33214449	      0.63457645	     -0.66224855	     -0.61682554	      0.84398668	     -0.70363908	     -0.54568019	      1.54290919	     -0.70363908	     -0.37960794	      1.54290919	     -0.57946748	     -0.30842938	      1.29402831	     -0.53807695	     -0.18978736	      0.98295893	     -0.49668641	     -2.37247491	      7.17845577	     -3.68322775	      0.00000000	      0.00000000	      0.00000000	      0.00000000	      0.00000001	     12.23676808	     -8.36876853	     68.30174473	     15.25972671	     61.23650001	      0.00000000	      4.76763212	     14.98151844	     -2.05339665	     54.38723652	      4.38152847	     56.75178798	      0.00000000	      4.76763212
      0.10000000	    -35.92864839	      3.47976658	    -84.37428169	      1.68291602	      0.79428295	      0.05336992	     25.61084984	      1.38237273	      7.06846974	     37.13482463	      0.64812496	      6.81462402	     19.73668217	      0.00000000	     32.50308991	      0.07636863	    -12.17207765	     48.44656054	      0.84555199	     11.32171213	    -19.49491604	      0.00000000	     -0.30905707	      0.65177086	     -0.74577424	     -0.57394988	      0.86685524	     -0.79238513	     -0.50774986	      1.58471566	     -0.79238513	     -0.35322132	      1.58471566	     -0.65255246	     -0.28699039	      1.32909113	     -0.60594157	     -0.17659521	      1.00959306	     -0.55933068	     -2.20756373	      7.37296229	     -4.14777257	      0.00000000	      0.00000000	      0.00000000	      0.00000000	      0.00000001	     12.92849879	     -8.64884262	     73.77501357	     15.67883858	     61.97760033	      0.00000000	      4.80002398	     14.91608465	     -2.52090327	     62.23573798	      4.24270465	     57.00188245	      0.00000000	      4.80002398
